<svg width="32" height="32" viewBox="0 0 32 32" fill="none" xmlns="http://www.w3.org/2000/svg">
  <rect width="32" height="32" rx="6" fill="#1e40af"/>
  <path d="M8 16 Q10 13, 14 14 T20 16 Q22 18, 24 16" stroke="white" stroke-width="1.5" stroke-linecap="round" fill="none" opacity="0.5"/>
  <path d="M8 18 Q10 15, 14 16 T20 18 Q22 20, 24 18" stroke="#10b981" stroke-width="1.5" stroke-linecap="round" fill="none" opacity="0.7"/>
  <rect x="10" y="13" width="12" height="7" rx="1.5" fill="white"/>
  <rect x="11" y="14" width="4" height="3.5" rx="0.5" fill="#1e40af" opacity="0.8"/>
  <rect x="16" y="14" width="4" height="3.5" rx="0.5" fill="#1e40af" opacity="0.8"/>
  <circle cx="13" cy="19.5" r="1" fill="#059669"/>
  <circle cx="18.5" cy="19.5" r="1" fill="#059669"/>
  <path d="M23 9 L24 11.5 L26.5 11.5 L24.5 13 L25.5 15.5 L23 13.5 L20.5 15.5 L21.5 13 L19.5 11.5 L22 11.5 Z" fill="#f59e0b" opacity="0.9"/>
</svg>



